# xmcd
#
# Track frame offsets: 
#        150
#        15956
#        28461
#        51876
#        69355
#        92538
#        116530
#        134794
#        156949
#        176894
#        204007
#        228867
#        244613
#        265153
#        278627
#        292796
#        316600
#        333831
#
# Disc length: 4763 seconds
#
# Revision: 1
# Processed by: cddbd v1.5.2PL0 Copyright (c) Steve Scherf et al.
# Submitted via: ExactAudioCopy v1.3
#
DISCID=ed129912
DTITLE=Various Artist - Akella Presents - vol.51 - Modern Electric Bl
DTITLE=ues - 2015  CD2
DYEAR=2015
DGENRE=Blues
TTITLE0=Sean Costello - Going Home
TTITLE1=Watermelon Slim - You're The One I Need
TTITLE2=HBB and Dick Heckstall-Smith - On Your Way Down
TTITLE3=Nine Below Zero - Cold Cruel Heart
TTITLE4=Blue Lou and The Headhunters - Third Degree
TTITLE5=John Mayall - One in a Million
TTITLE6=Big Al and the Heavyweights - Real Good Time
TTITLE7=Mark Knopfler - Hot Or What
TTITLE8=Pat Boyack and The Prowlers - Think (Before You Do)
TTITLE9=Jeremy Spencer - Send an Angel
TTITLE10=Robben Ford - Nothing to Nobody
TTITLE11=John Hammond - Trouble Blues
TTITLE12=Smokin' Joe Kubek and Bnois King - She Can Smell Another Woman
TTITLE13=Calvin Russell - Midnite Man
TTITLE14=Paul Thorn - I'm Still Here
TTITLE15=Eric Street Band - Sunday Morning
TTITLE16=The Blues Band - Green Stuff
TTITLE17=Christian Dozzler and The Blues Wave - She Belong To Me
EXTD=
EXTT0=
EXTT1=
EXTT2=
EXTT3=
EXTT4=
EXTT5=
EXTT6=
EXTT7=
EXTT8=
EXTT9=
EXTT10=
EXTT11=
EXTT12=
EXTT13=
EXTT14=
EXTT15=
EXTT16=
EXTT17=
PLAYORDER=
